<svg xmlns="http://www.w3.org/2000/svg" width="64" height="81" viewBox="0 0 64 81">
    <g fill="#AAA">
        <path d="M30.353 79.693c-.454-.22-1.034-.799-1.958-1.958-1.566-1.958-2.615-3.743-3.07-5.184-.328-1.049-1.487-7.329-1.409-7.595.031-.078.33.22.658.658 1.175 1.535 3.053 2.788 5.042 3.383 1.285.376 3.43.345 4.761-.078 1.895-.596 4.072-2.225 5.137-3.822.22-.313.407-.564.438-.532.079.078-1.002 6.249-1.284 7.392-.47 1.88-1.738 4.009-3.946 6.624-.376.454-.956.97-1.3 1.127-.814.423-2.192.423-3.07-.015z" transform="matrix(1 0 0 -1 0 81)"/>
        <path d="M30.07 66.287c-1.284-.47-2.192-1.08-3.085-2.098-.454-.533-1.535-1.66-2.412-2.506l-1.566-1.535-.203-1.3c-.659-4.307-2.679-10.179-5.372-15.504-1.645-3.289-2.177-3.93-4.714-5.732-5.356-3.805-9.068-7.423-10.962-10.65-.532-.924-1.252-2.568-1.44-3.35l-.11-.44h18.823v1.41c0 1.644.22 2.24.94 2.49.563.188 1.033.048 1.487-.454.298-.329.314-.595.36-8.08l.048-7.737h1.347l.595-1.55c.595-1.597.924-2.068 1.691-2.35.282-.109 2.552-.172 6.42-.172 7.597 0 7.048-.172 8.145 2.663l.516 1.33.737.048.72.048.047 7.72c.047 7.486.063 7.752.36 8.081.454.501.924.642 1.488.454.72-.25.94-.846.94-2.49v-1.41h9.396c5.167 0 9.396.016 9.396.048 0 .281-.61 1.958-.97 2.693-1.896 3.728-5.185 7.063-11.543 11.652-1.315.955-2.49 1.941-2.834 2.38-.705.908-2.976 5.466-4.15 8.363-1.426 3.492-2.631 7.454-3.07 9.976-.172 1.033-.219 1.112-1.581 2.662-.768.877-1.786 2.051-2.24 2.631-1.018 1.269-1.786 1.91-3.007 2.458-1.19.55-3.037.658-4.197.251zm8.582-28.423c.83-.439 1.003-1.441.345-2.083l-.376-.392H25.278l-.375.392c-.642.626-.486 1.629.313 2.083.438.25 12.967.266 13.436 0zm.36-7.063c.486-.564.486-1.221 0-1.786l-.375-.438H25.263l-.376.438c-.61.72-.39 1.802.47 2.146.172.078 3.241.125 6.796.11l6.484-.032.375-.438zm-.015-6.765c.517-.502.517-1.3 0-1.864l-.376-.408H25.278l-.375.391c-.266.251-.391.548-.391.94 0 .391.125.69.39.94l.376.39h13.343l.376-.39zM37.619 18.6c.344-.313.36-.454.36-2.27 0-1.848-.016-1.958-.391-2.319-.565-.58-1.348-.532-1.864.094-.33.391-.408.643-.408 1.331v.846H28.583v-.846c0-.689-.079-.94-.408-1.33-.486-.596-1.221-.642-1.848-.157-.407.313-.407.344-.407 2.302 0 1.801.031 2.005.345 2.334l.329.36h5.34c5.246 0 5.325 0 5.685-.345z" transform="matrix(1 0 0 -1 0 81)"/>
        <path d="M.08 19.133c0-1.44.314-2.145 1.113-2.552.423-.203 2.318-.407 8.833-.909 4.573-.36 8.456-.689 8.66-.735l.345-.063v5.482H.08v-1.223zM44.87 17.646v-2.71l8.66.69c6.797.548 8.755.752 9.178.955.798.408 1.112 1.112 1.112 2.552v1.222H44.87v-2.71zM25.122 5.243c-.58-.313-.814-1.003-.736-2.114.078-1.175.517-1.723 1.378-1.723.83 0 1.284.548 1.378 1.629.094 1.112-.187 1.91-.752 2.208-.548.281-.752.281-1.268 0zM29.193 5.243c-.641-.345-.798-.956-.735-2.819.047-1.613.063-1.692.485-2.052.565-.485 1.222-.485 1.786 0 .423.36.439.454.501 1.91.063 1.865-.14 2.632-.767 2.96-.55.282-.737.282-1.27 0zM33.28 5.274c-.673-.329-.798-.814-.751-2.74.047-1.739.063-1.786.485-2.162.564-.485 1.222-.485 1.786 0 .423.36.439.454.501 1.91.063 1.865-.14 2.632-.767 2.96-.549.282-.752.282-1.253.032zM37.352 5.274c-.547-.281-.783-.83-.783-1.941 0-.814.063-1.034.408-1.441.532-.642 1.394-.674 1.942-.094.768.814.564 2.99-.313 3.445-.549.281-.752.281-1.254.031z" transform="matrix(1 0 0 -1 0 81)"/>
    </g>
</svg>
